<?xml version="1.0" standalone="no"?>
<!DOCTYPE svg PUBLIC "-//W3C//DTD SVG 20010904//EN"
 "http://www.w3.org/TR/2001/REC-SVG-20010904/DTD/svg10.dtd">
<svg version="1.0" xmlns="http://www.w3.org/2000/svg"
 width="27.000000pt" height="27.000000pt" viewBox="0 0 27.000000 27.000000"
 preserveAspectRatio="xMidYMid meet">

<g transform="translate(0.000000,27.000000) scale(0.100000,-0.100000)"
fill="#000000" stroke="none">
<path d="M96 260 c-67 -20 -105 -92 -86 -162 11 -39 60 -88 89 -88 21 0 161
140 161 162 0 28 -49 77 -88 88 -42 11 -37 11 -76 0z m72 -92 c15 -15 15 -51
0 -66 -15 -15 -51 -15 -66 0 -28 28 -7 78 33 78 12 0 26 -5 33 -12z"/>
</g>
</svg>
